<svg width="1920" height="84" viewBox="0 0 1920 84" fill="none" xmlns="http://www.w3.org/2000/svg">
<rect width="1920" height="84" fill="#071831"/>
<path d="M61.0049 61.9861H46.3362L61.0049 20H75.6737L61.0049 61.9861Z" fill="#65B1F8"/>
<path opacity="0.7" d="M74.6349 62H90.3257L75.6663 20.0164L67.8091 42.4494L74.6349 62Z" fill="url(#paint0_linear_6_160)"/>
<path d="M86.2778 31.6152H100.939L105 20.0005H90.3312L86.2778 31.6152Z" fill="#65B1F8"/>
<path opacity="0.7" d="M61.0029 61.9867H46.3342L42.2808 50.3719H56.9495L61.0029 61.9867Z" fill="#65B1F8"/>
<path d="M84.7923 35.8579L75.6703 61.9855H90.3317L99.461 35.8579H84.7923Z" fill="#65B1F8"/>
<path d="M139.482 30.7891H135.117V44.2656H134.912L125.654 30.7891H121.787V52H126.182V38.5234H126.357L135.674 52H139.482V30.7891ZM150.117 52.3223C154.937 52.3076 157.925 49.0117 157.939 44.0898C157.925 39.1826 154.937 35.8867 150.117 35.8867C145.312 35.8867 142.31 39.1826 142.324 44.0898C142.31 49.0117 145.312 52.3076 150.117 52.3223ZM146.719 44.0898C146.719 41.292 147.876 39.1973 150.146 39.1973C152.358 39.1973 153.53 41.292 153.516 44.0898C153.53 46.873 152.358 48.9385 150.146 48.9531C147.876 48.9385 146.719 46.873 146.719 44.0898ZM160.664 52H165V42.9473C164.985 40.999 166.436 39.6367 168.398 39.6367C168.999 39.6367 169.834 39.7393 170.244 39.8711V36.0039C169.863 35.916 169.307 35.8574 168.867 35.8574C167.08 35.8574 165.601 36.8975 165.029 38.8457H164.854V36.0918H160.664V52ZM172.354 52H176.689V36.0918H172.354V52ZM172.148 31.8145C172.148 33.0156 173.218 34.0117 174.521 34.0117C175.811 34.0117 176.88 33.0156 176.865 31.8145C176.88 30.584 175.811 29.6025 174.521 29.5879C173.218 29.6025 172.148 30.584 172.148 31.8145ZM191.66 36.8535H195.879C195.82 33.1035 192.729 30.4961 188.027 30.4961C183.384 30.4961 179.985 33.0596 180 36.9121C180 40.0176 182.197 41.8047 185.771 42.6836L188.086 43.2402C190.4 43.8115 191.719 44.4854 191.719 45.9355C191.719 47.5176 190.225 48.6016 187.91 48.6016C185.566 48.6016 183.867 47.5176 183.721 45.3789H179.443C179.575 49.9346 182.842 52.3076 187.969 52.293C193.14 52.3076 196.157 49.8174 196.172 45.9355C196.157 42.4053 193.447 40.5596 189.814 39.7246L187.91 39.2559C186.079 38.8457 184.497 38.1572 184.512 36.6191C184.526 35.2129 185.771 34.1875 187.998 34.1875C190.151 34.1875 191.484 35.1689 191.66 36.8535Z" fill="white"/>
<path d="M220.836 37.4062H223.121C222.436 33.585 219.427 31.3633 215.707 31.3633C210.984 31.3633 207.569 34.9941 207.582 40.8086C207.569 46.623 210.984 50.2539 215.707 50.2539C219.439 50.2539 222.461 47.9941 223.121 44.2363H220.836C220.29 46.75 218.132 48.1084 215.707 48.1211C212.381 48.1084 209.804 45.5439 209.791 40.8086C209.804 36.0605 212.381 33.4961 215.707 33.4961C218.132 33.4961 220.303 34.8672 220.836 37.4062ZM228.225 41.7227C228.225 39.3359 229.748 37.9902 231.805 37.9902C233.785 37.9902 234.979 39.2217 234.979 41.3926V50H237.162V41.2402C237.162 37.6982 235.283 36.0352 232.465 36.0352C230.281 36.0352 229.05 36.9492 228.402 38.3711H228.225V31.6172H226.041V50H228.225V41.7227ZM246.455 50.2793C249.299 50.292 251.343 48.8701 251.99 46.7754H249.654C249.146 47.626 248.105 48.3496 246.455 48.3496C244.005 48.3496 242.304 46.75 242.189 43.8301H252.193V42.916C252.206 37.8125 249.146 36.0352 246.252 36.0352C242.507 36.0352 240.006 38.9805 240.006 43.2207C240.006 47.4482 242.469 50.292 246.455 50.2793ZM242.202 41.9766C242.354 39.8438 243.865 37.9648 246.252 37.9648C248.524 37.9648 249.972 39.6787 249.984 41.9766H242.202ZM260.674 50.2793C263.733 50.292 265.765 48.4004 266.107 45.9375H263.924C263.543 47.4482 262.299 48.3242 260.674 48.3242C258.173 48.3242 256.573 46.2803 256.561 43.0938C256.573 39.9961 258.211 37.9648 260.674 37.9648C262.515 37.9648 263.606 39.1201 263.924 40.377H266.107C265.765 37.7744 263.556 36.0352 260.623 36.0352C256.878 36.0352 254.377 38.9805 254.377 43.1699C254.377 47.3086 256.764 50.292 260.674 50.2793ZM268.799 50H270.982V44.8584L272.442 43.5L277.559 50H280.326L274.08 42.1162L279.895 36.2129H277.203L271.236 42.3066H270.982V31.6172H268.799V50ZM294.748 50C300.347 50 303.508 46.5215 303.508 40.7832C303.508 35.0576 300.347 31.6172 294.977 31.6172H289.035V50H294.748ZM291.32 47.9688V33.6484H294.824C299.103 33.6484 301.273 36.3398 301.273 40.7832C301.273 45.2393 299.103 47.9688 294.596 47.9688H291.32ZM312.369 50.2793C315.213 50.292 317.257 48.8701 317.904 46.7754H315.568C315.061 47.626 314.02 48.3496 312.369 48.3496C309.919 48.3496 308.218 46.75 308.104 43.8301H318.107V42.916C318.12 37.8125 315.061 36.0352 312.166 36.0352C308.421 36.0352 305.92 38.9805 305.92 43.2207C305.92 47.4482 308.383 50.292 312.369 50.2793ZM308.116 41.9766C308.269 39.8438 309.779 37.9648 312.166 37.9648C314.438 37.9648 315.886 39.6787 315.898 41.9766H308.116ZM326.969 36.2129H324.074V32.9121H321.865V36.2129H319.783V38.041H321.865V46.5977C321.878 49.0352 323.808 50.1777 325.648 50.1777C326.296 50.1777 326.829 50.127 327.172 50.0762V48.0449C326.854 48.0576 326.271 48.0957 325.877 48.0957C324.95 48.0957 324.062 47.8037 324.074 46.0391V38.041H326.969V36.2129ZM335.424 50.2793C338.268 50.292 340.312 48.8701 340.959 46.7754H338.623C338.115 47.626 337.074 48.3496 335.424 48.3496C332.974 48.3496 331.272 46.75 331.158 43.8301H341.162V42.916C341.175 37.8125 338.115 36.0352 335.221 36.0352C331.476 36.0352 328.975 38.9805 328.975 43.2207C328.975 47.4482 331.438 50.292 335.424 50.2793ZM331.171 41.9766C331.323 39.8438 332.834 37.9648 335.221 37.9648C337.493 37.9648 338.94 39.6787 338.953 41.9766H331.171ZM349.643 50.2793C352.702 50.292 354.733 48.4004 355.076 45.9375H352.893C352.512 47.4482 351.268 48.3242 349.643 48.3242C347.142 48.3242 345.542 46.2803 345.529 43.0938C345.542 39.9961 347.18 37.9648 349.643 37.9648C351.483 37.9648 352.575 39.1201 352.893 40.377H355.076C354.733 37.7744 352.524 36.0352 349.592 36.0352C345.847 36.0352 343.346 38.9805 343.346 43.1699C343.346 47.3086 345.732 50.292 349.643 50.2793ZM363.785 36.2129H360.891V32.9121H358.682V36.2129H356.6V38.041H358.682V46.5977C358.694 49.0352 360.624 50.1777 362.465 50.1777C363.112 50.1777 363.646 50.127 363.988 50.0762V48.0449C363.671 48.0576 363.087 48.0957 362.693 48.0957C361.767 48.0957 360.878 47.8037 360.891 46.0391V38.041H363.785V36.2129ZM366.604 50H368.787V36.2129H366.604V50ZM366.172 32.4805C366.159 33.2803 366.857 33.9277 367.695 33.9277C368.533 33.9277 369.231 33.2803 369.244 32.4805C369.231 31.668 368.533 31.0205 367.695 31.0332C366.857 31.0205 366.159 31.668 366.172 32.4805ZM377.902 50.2793C381.647 50.292 384.161 47.4482 384.148 43.1699C384.161 38.8662 381.647 36.0352 377.902 36.0352C374.145 36.0352 371.605 38.8662 371.605 43.1699C371.605 47.4482 374.145 50.292 377.902 50.2793ZM373.789 43.1699C373.802 40.4277 375.097 37.9648 377.902 37.9648C380.683 37.9648 381.965 40.4277 381.965 43.1699C381.965 45.9248 380.683 48.3496 377.902 48.3496C375.097 48.3496 373.802 45.9248 373.789 43.1699ZM389.201 41.7227C389.201 39.3359 390.674 37.9902 392.68 37.9902C394.635 37.9902 395.803 39.2598 395.803 41.3926V50H397.986V41.2402C397.999 37.7363 396.133 36.0352 393.34 36.0352C391.245 36.0352 389.95 36.9619 389.303 38.3711H389.125V36.2129H387.018V50H389.201V41.7227Z" fill="white"/>
<path d="M1751.91 39.4219H1753.87C1753.43 36.6885 1751.3 35.0977 1748.61 35.0977C1745.31 35.0977 1742.88 37.5674 1742.88 41.6367C1742.88 45.7061 1745.3 48.1758 1748.61 48.1758C1751.41 48.1758 1753.46 46.418 1753.87 43.9043L1751.91 43.8867C1751.58 45.5127 1750.23 46.4092 1748.63 46.4004C1746.44 46.4092 1744.8 44.7393 1744.79 41.6367C1744.8 38.5518 1746.43 36.8643 1748.63 36.873C1750.24 36.8643 1751.61 37.7783 1751.91 39.4219ZM1759.84 48.1934C1762.53 48.1934 1764.29 46.2246 1764.29 43.2715C1764.29 40.3008 1762.53 38.332 1759.84 38.332C1757.13 38.332 1755.37 40.3008 1755.38 43.2715C1755.37 46.2246 1757.13 48.1934 1759.84 48.1934ZM1757.26 43.2715C1757.26 41.4434 1758.09 39.8877 1759.84 39.8789C1761.56 39.8877 1762.39 41.4434 1762.39 43.2715C1762.39 45.0908 1761.56 46.6289 1759.84 46.6289C1758.09 46.6289 1757.26 45.0908 1757.26 43.2715ZM1766.13 48H1768.02V42.1113C1768.02 40.8281 1768.91 39.9492 1769.97 39.9492C1771 39.9492 1771.71 40.626 1771.71 41.6719V48H1773.57V41.918C1773.57 40.7754 1774.26 39.9492 1775.47 39.9492C1776.45 39.9492 1777.26 40.4854 1777.26 41.7773V48H1779.14V41.6016C1779.13 39.4131 1777.91 38.332 1776.19 38.332C1774.81 38.332 1773.77 38.9912 1773.32 40.0195H1773.22C1772.81 38.9561 1771.93 38.332 1770.65 38.332C1769.4 38.332 1768.46 38.9561 1768.05 40.0195H1767.95V38.4551H1766.13V48ZM1781.41 51.5859H1783.29V46.5059H1783.4C1783.74 47.1299 1784.42 48.1846 1786.16 48.1934C1788.47 48.1846 1790.15 46.3301 1790.15 43.2539C1790.15 40.1426 1788.45 38.332 1786.14 38.332C1784.37 38.332 1783.73 39.4043 1783.4 40.002H1783.24V38.4551H1781.41V51.5859ZM1783.26 43.2188C1783.26 41.2324 1784.12 39.9229 1785.73 39.9316C1787.41 39.9229 1788.25 41.3379 1788.25 43.2188C1788.25 45.1348 1787.39 46.585 1785.73 46.5938C1784.13 46.585 1783.26 45.2227 1783.26 43.2188ZM1791.57 45.3105C1791.56 47.1738 1792.98 48.2109 1794.79 48.2109C1796.37 48.2109 1797.25 47.4111 1797.62 46.6992H1797.69V48H1799.52V41.6543C1799.51 38.8857 1797.29 38.332 1795.77 38.332C1793.51 38.332 1792.04 39.4746 1791.87 41.0566H1793.73C1793.93 40.3535 1794.59 39.8438 1795.7 39.8438C1796.98 39.8438 1797.64 40.4678 1797.63 41.5488L1797.64 42.3135C1797.2 42.3311 1795.77 42.4102 1795.14 42.4453C1793.42 42.5684 1791.56 43.1309 1791.57 45.3105ZM1793.4 45.3281C1793.4 44.3877 1794.17 43.9219 1795.4 43.834C1795.85 43.8076 1797.21 43.7109 1797.64 43.6846L1797.65 44.5547C1797.65 45.6885 1796.74 46.708 1795.21 46.7168C1794.15 46.708 1793.4 46.2422 1793.4 45.3281ZM1803.66 42.3398C1803.66 40.8193 1804.59 39.9492 1805.88 39.9492C1807.14 39.9492 1807.89 40.7754 1807.9 42.1641V48H1809.76V41.9355C1809.77 39.5713 1808.47 38.332 1806.51 38.332C1805.09 38.332 1804.15 38.9912 1803.7 40.0195H1803.59V38.4551H1801.78V48H1803.66V42.3398ZM1812.86 51.5859C1814.43 51.5771 1815.4 50.7773 1815.95 49.2656L1819.89 38.4551H1817.87L1815.46 45.8555H1815.35L1812.95 38.4551H1810.94L1814.44 48.123L1814.21 48.7559C1813.76 49.96 1813.28 49.9951 1812.7 50.0039C1812.44 49.9951 1812.07 49.9863 1811.86 49.9688V51.5332C1812.09 51.5684 1812.47 51.5771 1812.86 51.5859ZM1836.24 35.2734H1834.34V44.5898H1834.21L1827.76 35.2734H1825.97V48H1827.9V38.7012H1828.01L1834.46 48H1836.24V35.2734ZM1838.24 45.3105C1838.23 47.1738 1839.65 48.2109 1841.46 48.2109C1843.04 48.2109 1843.92 47.4111 1844.29 46.6992H1844.36V48H1846.19V41.6543C1846.18 38.8857 1843.96 38.332 1842.44 38.332C1840.18 38.332 1838.71 39.4746 1838.54 41.0566H1840.4C1840.6 40.3535 1841.26 39.8438 1842.37 39.8438C1843.65 39.8438 1844.31 40.4678 1844.3 41.5488L1844.31 42.3135C1843.87 42.3311 1842.44 42.4102 1841.81 42.4453C1840.09 42.5684 1838.23 43.1309 1838.24 45.3105ZM1840.07 45.3281C1840.07 44.3877 1840.84 43.9219 1842.07 43.834C1842.52 43.8076 1843.88 43.7109 1844.31 43.6846L1844.32 44.5547C1844.32 45.6885 1843.41 46.708 1841.88 46.7168C1840.82 46.708 1840.07 46.2422 1840.07 45.3281ZM1848.45 48H1850.33V42.1113C1850.33 40.8281 1851.23 39.9492 1852.29 39.9492C1853.31 39.9492 1854.03 40.626 1854.03 41.6719V48H1855.89V41.918C1855.89 40.7754 1856.58 39.9492 1857.79 39.9492C1858.77 39.9492 1859.58 40.4854 1859.58 41.7773V48H1861.46V41.6016C1861.45 39.4131 1860.23 38.332 1858.51 38.332C1857.13 38.332 1856.09 38.9912 1855.64 40.0195H1855.54C1855.13 38.9561 1854.25 38.332 1852.97 38.332C1851.71 38.332 1850.77 38.9561 1850.37 40.0195H1850.26V38.4551H1848.45V48ZM1867.84 48.1934C1869.94 48.1934 1871.41 47.1562 1871.83 45.6094H1869.93C1869.62 46.1895 1868.92 46.6465 1867.86 46.6465C1866.29 46.6465 1865.22 45.6182 1865.17 43.7988H1871.96V43.1309C1871.96 39.6768 1869.89 38.332 1867.72 38.332C1865.06 38.332 1863.3 40.3535 1863.31 43.2891C1863.3 46.251 1865.03 48.1934 1867.84 48.1934ZM1865.18 42.3926C1865.26 41.0479 1866.23 39.8701 1867.74 39.8789C1869.17 39.8701 1870.11 40.9424 1870.11 42.3926H1865.18Z" fill="#CBCBCB"/>
<defs>
<linearGradient id="paint0_linear_6_160" x1="69.0222" y1="26.4946" x2="89.4458" y2="65.5957" gradientUnits="userSpaceOnUse">
<stop stop-color="#65B1F8"/>
<stop offset="1" stop-color="white" stop-opacity="0"/>
<stop offset="1" stop-color="#65B1F8" stop-opacity="0"/>
</linearGradient>
</defs>
</svg>
