<svg width="59" height="60" viewBox="0 0 59 60" fill="none" xmlns="http://www.w3.org/2000/svg">
<path d="M54.7 10.1238V42.6C54.7 49.5588 49.0588 55.2 42.1 55.2H9.62377C11.0762 57.7107 13.7908 59.4 16.9 59.4H42.1C51.3784 59.4 58.9 51.8784 58.9 42.6V17.4C58.9 14.2908 57.2108 11.5762 54.7 10.1238ZM35.8 27.9C36.9598 27.9 37.9 26.9597 37.9 25.8C37.9 24.6402 36.9598 23.7 35.8 23.7L27.4 23.7L27.4 15.3C27.4 14.1402 26.4598 13.2 25.3 13.2C24.1402 13.2 23.2 14.1402 23.2 15.3L23.2 23.7H14.8C13.6402 23.7 12.7 24.6402 12.7 25.8C12.7 26.9597 13.6402 27.9 14.8 27.9H23.2V36.2999C23.2 37.4597 24.1402 38.3999 25.3 38.3999C26.4598 38.3999 27.4 37.4597 27.4 36.2999V27.9L35.8 27.9ZM42.1 0.599977C46.7392 0.599977 50.5 4.36078 50.5 8.99997V42.5999C50.5 47.2391 46.7392 50.9999 42.1 50.9999H8.50001C3.86081 50.9999 0.100006 47.2391 0.100006 42.5999L0.100008 8.99997C0.100008 4.36078 3.86082 0.599975 8.50001 0.599976L42.1 0.599977ZM46.3 8.99997C46.3 6.68038 44.4196 4.79997 42.1 4.79997L8.50001 4.79997C6.18041 4.79997 4.30001 6.68037 4.30001 8.99997L4.30001 42.5999C4.30001 44.9195 6.18041 46.7999 8.50001 46.7999H42.1C44.4196 46.7999 46.3 44.9195 46.3 42.5999V8.99997Z" fill="#767676"/>
</svg>
