<svg width="106" height="24" viewBox="0 0 106 24" fill="none" xmlns="http://www.w3.org/2000/svg">
<path d="M12 4.5C16.1421 4.5 19.5 7.85786 19.5 12C19.5 16.1421 16.1421 19.5 12 19.5C7.85786 19.5 4.5 16.1421 4.5 12C4.5 11.6236 4.52772 11.2538 4.58123 10.8923C4.64845 10.4382 4.31609 10 3.85708 10C3.48623 10 3.161 10.2562 3.10471 10.6228C3.03576 11.0718 3 11.5317 3 12C3 16.9706 7.02944 21 12 21C16.9706 21 21 16.9706 21 12C21 7.02944 16.9706 3 12 3C9.69494 3 7.59227 3.86656 6 5.29168V4.25C6 3.83579 5.66421 3.5 5.25 3.5C4.83579 3.5 4.5 3.83579 4.5 4.25V7.25C4.5 7.66421 4.83579 8 5.25 8H8.25C8.66421 8 9 7.66421 9 7.25C9 6.83579 8.66421 6.5 8.25 6.5H6.90093C8.23907 5.25883 10.0309 4.5 12 4.5Z" fill="#CBCBCB"/>
<path d="M43.8984 5.32812H42.4141V19.3594H43.8984V11.9688H46.1484V10.75H43.8984V5.32812ZM33.5859 15.875H34.7109C37.3125 15.8828 39.1719 15.8125 41.3672 15.4219L41.1797 14.1719C39.1797 14.5312 37.4219 14.6328 35.0703 14.6406V7.875H40.1328V6.67188H33.5859V15.875ZM51.9609 8.89062V6.5H50.4609V8.89062C50.4609 11.5625 48.9141 14.2422 46.7109 15.2188L47.6172 16.4688C49.2969 15.6484 50.5859 13.9609 51.2344 11.9062C51.8906 13.8203 53.1641 15.3906 54.7734 16.1562L55.6641 14.9844C53.4922 14.0234 51.9453 11.4453 51.9609 8.89062ZM56.9297 19.3594H58.4141V5.32812H56.9297V19.3594ZM70.9297 5.48438C67.7734 5.47656 65.9219 6.34375 65.9297 7.89062C65.9219 9.33594 67.4844 10.1719 70.1797 10.2969V11.2812H64.5547V12.4688H77.3203V11.2812H71.6328V10.2969C74.3594 10.1797 75.9219 9.34375 75.9297 7.89062C75.9219 6.34375 74.0859 5.47656 70.9297 5.48438ZM66.0859 14.6406H74.2422V15.7344H66.1016V19.1875H76.1016V18.0469H67.5547V16.7969H75.7109V13.5156H66.0859V14.6406ZM67.4766 7.89062C67.4688 7.07031 68.7031 6.60156 70.9297 6.59375C73.1719 6.60156 74.4062 7.07031 74.3984 7.89062C74.4062 8.75781 73.1719 9.19531 70.9297 9.20312C68.7031 9.19531 67.4688 8.75781 67.4766 7.89062ZM90.0078 5.32812H88.5234V19.3594H90.0078V5.32812ZM79.1641 7.79688H84.2109V10.5156H79.1797V16H80.3672C82.8438 15.9922 84.9531 15.8984 87.4297 15.4844L87.2891 14.2656C84.9453 14.6484 82.9688 14.7578 80.6953 14.7656V11.7031H85.7266V6.59375H79.1641V7.79688ZM103.852 5.32812H102.352V19.3281H103.852V5.32812ZM92.3516 15.5781L93.1328 16.7812C97.9375 14.4766 99.6797 10.9297 99.6797 6.82812H93.0234V8.01562H98.1797C97.8906 11.2812 96.0703 13.8047 92.3516 15.5781Z" fill="#CBCBCB"/>
</svg>
